<svg data-v-698cad85="" width="16" height="16" viewBox="0 0 24 24" fill="black" xmlns="http://www.w3.org/2000/svg" class="ui-icon ">
<path d="M12 16C12.3107 15.9911 12.5948 15.8748 12.8257 15.6243L18.4481 9.8071C18.6435 9.61029 18.75 9.3598 18.75 9.06458C18.75 8.47414 18.2883 8 17.7024 8C17.4183 8 17.143 8.1163 16.9388 8.32206L12.0089 13.4504L7.06116 8.32206C6.85696 8.12524 6.59061 8 6.29763 8C5.71167 8 5.25 8.47414 5.25 9.06458C5.25 9.3598 5.35654 9.61029 5.55186 9.8071L11.1832 15.6243C11.4229 15.8748 11.6893 16 12 16Z"></path>
</svg>